<svg xmlns="http://www.w3.org/2000/svg" xmlns:xlink="http://www.w3.org/1999/xlink" version="1.1" x="0px" y="0px" viewBox="0 0 100 125" style="enable-background:new 0 0 100 100;" xml:space="preserve"><g><path d="M84.5,51.5h-5v0.1C75.9,40.5,65.5,33,53.8,33h-3V23c3.8-0.5,6.6-3.9,6.1-7.8S53,8.6,49.2,9   c-3.8,0.5-6.6,3.9-6.1,7.8c0.4,3.1,2.7,5.6,5.8,6.1V33h-3c-11.6,0-22,7.5-25.6,18.5h-4.7c-3.3,0-6,2.7-6,6v9c0,3.3,2.7,6,6,6h3.3   V80c0,6.1,4.9,11,11,11h40c6.1,0,11-4.9,11-11v-7.5h3.7c3.3,0,6-2.7,6-6v-9C90.5,54.2,87.8,51.5,84.5,51.5z M45,16c0-2.8,2.2-5,5-5   s5,2.2,5,5s-2.2,5-5,5S45,18.8,45,16z M15.5,70.5c-2.2,0-4-1.8-4-4v-9c0-2.2,1.8-4,4-4h4.1c-0.5,2.1-0.8,4.3-0.8,6.5v10.5H15.5z    M35.8,89V79c0-2.8,2.2-5,5-5h8v15H35.8z M50.8,89V74h8c2.8,0,5,2.2,5,5v10H50.8z M78.8,80c0,5-4,9-9,9h-4V79c0-3.9-3.1-7-7-7h-18   c-3.9,0-7,3.1-7,7v10h-4c-5,0-9-4-9-9V60c0-13.8,11.2-25,25-25h8c13.8,0,25,11.2,25,25V80z M88.5,66.5c0,2.2-1.8,4-4,4h-3.7V60   c0-2.2-0.3-4.4-0.8-6.5h4.5c2.2,0,4,1.8,4,4V66.5z"/><path d="M39,48c-3.9,0-7,3.1-7,7s3.1,7,7,7s7-3.1,7-7S42.9,48,39,48z M39,60c-2.8,0-5-2.2-5-5s2.2-5,5-5   s5,2.2,5,5S41.8,60,39,60z"/><path d="M61,48c-3.9,0-7,3.1-7,7s3.1,7,7,7s7-3.1,7-7S64.9,48,61,48z M61,60c-2.8,0-5-2.2-5-5s2.2-5,5-5   s5,2.2,5,5S63.8,60,61,60z"/></g></svg>