<svg xmlns="http://www.w3.org/2000/svg" xmlns:xlink="http://www.w3.org/1999/xlink" version="1.1" x="0px" y="0px" viewBox="0 0 64 80" style="enable-background:new 0 0 64 64;" xml:space="preserve"><g><path d="M53.03,50.243L53.719,53h-2.82c-0.279-1.37-1.128-2.525-2.278-3.239L55,47.731V34.296c2.682-3.71,4.148-8.267,3.987-13.022   C58.609,10.095,48.964,1,37.486,1H30.78c-3.474,0-6.684,0.699-9.541,2.079C13.689,6.724,9,14.16,9,22.485   c0,2.564-1.148,4.953-3.15,6.554l-2.178,1.742l0.486,0.758c3.348,5.222,5.831,10.915,7.38,16.92l0.312,1.21   c0.537,2.083,1.875,3.774,3.67,4.64c0.948,0.457,1.977,0.685,3.001,0.685c1.125,0,2.246-0.274,3.256-0.821l14.997-8.123   c2.587-1.402,5.293-2.705,7.91-3.965c0.835-0.402,1.67-0.804,2.503-1.21c2.205-1.074,4.156-2.512,5.812-4.208v9.601l-20,6.364V51   h-2v12h27.281L54.97,49.757L53.03,50.243z M46.312,39.078c-0.83,0.405-1.663,0.806-2.495,1.207   c-0.928,0.447-1.874,0.909-2.816,1.37V38h-2v4.652c-0.67,0.337-1.336,0.684-2,1.032V38h-2v6.738l-2,1.083V38h-2v8.904   l-10.176,5.512c-1.365,0.739-3.024,0.774-4.435,0.093c-1.264-0.609-2.213-1.826-2.603-3.338l-0.312-1.21   c-0.083-0.322-0.179-0.64-0.267-0.96H16v-2h-3.379c-1.515-4.838-3.62-9.46-6.299-13.777L7.1,30.601   c2.479-1.983,3.9-4.941,3.9-8.116c0-7.551,4.257-14.297,11.108-17.605C24.692,3.632,27.61,3,30.78,3H31v6.37   c-4.722,2.253-8,7.059-8,12.63c0,7.72,6.28,14,14,14s14-6.28,14-14S44.72,8,37,8c-1.39,0-2.731,0.21-4,0.59V3h4.486   c10.412,0,19.16,8.228,19.503,18.341C57.242,28.833,53.052,35.795,46.312,39.078z M27.845,14.259l2.13,2.13   C28.742,17.93,28,19.878,28,22s0.742,4.07,1.975,5.611l-2.13,2.13C26.074,27.649,25,24.949,25,22S26.074,16.351,27.845,14.259z    M44,22c0,3.86-3.141,7-7,7s-7-3.14-7-7s3.141-7,7-7S44,18.14,44,22z M31.389,29.025C32.929,30.258,34.878,31,37,31   s4.071-0.742,5.611-1.975l2.13,2.13C42.649,32.926,39.949,34,37,34s-5.649-1.074-7.741-2.845L31.389,29.025z M46.155,29.741   l-2.13-2.13C45.258,26.07,46,24.122,46,22s-0.742-4.07-1.975-5.611l2.13-2.13C47.926,16.351,49,19.051,49,22   S47.926,27.649,46.155,29.741z M42.611,14.975C41.071,13.742,39.122,13,37,13s-4.071,0.742-5.611,1.975l-2.13-2.13   C31.351,11.074,34.051,10,37,10s5.649,1.074,7.741,2.845L42.611,14.975z M55.346,59.51l-4.744-3.558   c0.129-0.303,0.229-0.622,0.297-0.952h3.32L55.346,59.51z M46.363,58.963L47.382,61H38.72l6.714-2.043l-0.004-0.014   C45.619,58.964,45.805,59,46,59C46.124,59,46.241,58.972,46.363,58.963z M48.319,58.403c0.416-0.22,0.804-0.484,1.141-0.808   L54.001,61h-4.383L48.319,58.403z M46,57c-1.654,0-3-1.346-3-3s1.346-3,3-3s3,1.346,3,3S47.654,57,46,57z M41.392,52.061   C41.14,52.658,41,53.313,41,54c0,1.476,0.655,2.79,1.675,3.706L33,60.651v-5.919L41.392,52.061z"/><path d="M37,17c-2.757,0-5,2.243-5,5s2.243,5,5,5s5-2.243,5-5S39.757,17,37,17z M37,25c-1.654,0-3-1.346-3-3s1.346-3,3-3   s3,1.346,3,3S38.654,25,37,25z"/><rect x="13" y="26" width="7" height="2"/><rect x="45" y="53" width="2" height="2"/><rect x="53" y="21" width="2" height="2"/><rect x="50.722" y="12.5" transform="matrix(0.8661 -0.4999 0.4999 0.8661 0.1782 27.6652)" width="2" height="2"/><rect x="44.5" y="6.277" transform="matrix(0.4999 -0.8661 0.8661 0.4999 16.451 43.0455)" width="2" height="2"/><rect x="36" y="4" width="2" height="2"/><rect x="44.5" y="35.722" transform="matrix(0.8661 -0.4999 0.4999 0.8661 -12.2646 27.6645)" width="2" height="2"/><rect x="50.722" y="29.5" transform="matrix(0.4999 -0.8661 0.8661 0.4999 -0.5497 60.048)" width="2" height="2"/></g></svg>