<svg xmlns="http://www.w3.org/2000/svg" data-name="Layer 1" viewBox="0 0 100 125" x="0px" y="0px"><title>76</title><g data-name="Group"><path data-name="Compound Path" d="M50,17.6A32.4,32.4,0,1,0,82.4,50,32.4,32.4,0,0,0,50,17.6Zm3.2,47.7H47.1v-6h6.2ZM59.1,48a15.4,15.4,0,0,1-3,2.8L54.6,52a4.4,4.4,0,0,0-1.6,2.2,9.1,9.1,0,0,0-.3,2.4H47.2a16.2,16.2,0,0,1,.7-4.8,8.5,8.5,0,0,1,2.8-3.1l1.5-1.2a5.3,5.3,0,0,0,1.2-1.2,4.2,4.2,0,0,0,.8-2.5,4.8,4.8,0,0,0-.9-2.9q-.9-1.3-3.3-1.3a3.7,3.7,0,0,0-3.4,1.6,6.1,6.1,0,0,0-1,3.3h-6q.2-5.9,4.1-8.3a10.8,10.8,0,0,1,6-1.6,12.9,12.9,0,0,1,7.7,2.2,7.6,7.6,0,0,1,3.1,6.6A7.5,7.5,0,0,1,59.1,48Z"/></g></svg>