<svg xmlns="http://www.w3.org/2000/svg" xmlns:xlink="http://www.w3.org/1999/xlink" version="1.1" x="0px" y="0px" viewBox="1 -1 100 125" style="enable-background:new 1 -1 100 100;" xml:space="preserve"><title>81</title><g><path d="M18,40.3L9.1,61.8c-0.6,1.5,0.1,3.3,1.6,3.9c0.3,0.1,0.6,0.2,0.9,0.2l7.5,0.7l2.3,17.9   c0.2,1.6,1.7,2.8,3.3,2.6c0,0,0.1,0,0.1,0l11.7-1.9v6.5c0,1.7,1.3,3,3,3s3-1.3,3-3V81.6c0-1.7-1.3-3-3-3c-0.2,0-0.3,0-0.5,0   l-12.1,2l-2.2-17.2c-0.2-1.4-1.3-2.5-2.7-2.6l-5.9-0.5l7.5-18.2c0.2-0.4,0.2-0.8,0.2-1.2c0-16,11.9-29.4,27.8-31.3   c1.3-0.1,2.5-0.2,3.8-0.2C73,9.4,87.1,23.5,87.1,41c0,9.8-4.6,19.1-12.4,25c-0.7,0.6-1.2,1.5-1.2,2.4v23.3c0,1.7,1.3,3,3,3   s3-1.3,3-3V69.9c16-13.2,18.3-36.9,5-52.9c-7.1-8.6-17.8-13.6-29-13.6c-1.5,0-3,0.1-4.5,0.3C32.4,5.9,18.3,21.5,18,40.3z"/></g></svg>