<svg xmlns="http://www.w3.org/2000/svg" xmlns:xlink="http://www.w3.org/1999/xlink" version="1.1" x="0px" y="0px" viewBox="0 0 64 80" enable-background="new 0 0 64 64" xml:space="preserve"><path d="M46,18.3V14h1.1c1.6,0,2.9-1.3,2.9-2.9v-0.3C50,9.3,48.7,8,47.1,8H16.9C15.3,8,14,9.3,14,10.9v0.3c0,1.6,1.3,2.9,2.9,2.9H18  v4.3c0,7,5.3,12.8,12,13.6c0,0,0,0.1,0,0.1s0,0.1,0,0.1c-6.8,0.9-12,6.6-12,13.6V50h-1.1c-1.6,0-2.9,1.3-2.9,2.9v0.3  c0,1.6,1.3,2.9,2.9,2.9h30.3c1.6,0,2.9-1.3,2.9-2.9v-0.3c0-1.6-1.3-2.9-2.9-2.9H46v-4.3c0-7-5.3-12.8-12-13.6c0,0,0-0.1,0-0.1  s0-0.1,0-0.1C40.7,31,46,25.2,46,18.3z M16.9,12c-0.5,0-0.9-0.4-0.9-0.9v-0.3c0-0.5,0.4-0.9,0.9-0.9h30.3c0.5,0,0.9,0.4,0.9,0.9v0.3  c0,0.5-0.4,0.9-0.9,0.9H46H18H16.9z M44,14v4.3c0,1.7-0.4,3.3-1,4.8H21c-0.6-1.5-1-3.1-1-4.8V14H44z M47.1,52c0.5,0,0.9,0.4,0.9,0.9  v0.3c0,0.5-0.4,0.9-0.9,0.9H16.9c-0.5,0-0.9-0.4-0.9-0.9v-0.3c0-0.5,0.4-0.9,0.9-0.9H18h1.2h25.5H46H47.1z M22.6,50  c2.3-3.3,5.7-5.3,9.4-5.3c3.7,0,7.1,1.9,9.3,5.3H22.6z M44,45.8V50h-0.3c-2.6-4.5-6.9-7.3-11.7-7.3c-4.8,0-9.1,2.7-11.7,7.3H20v-4.3  C20,39.3,25.3,34,31.8,34h0.5C38.7,34,44,39.3,44,45.8z M32.3,30h-0.5c-4,0-7.5-2-9.6-5h19.7C39.7,28,36.2,30,32.3,30z"/><path d="M32,40c-0.6,0-1-0.4-1-1v-3c0-0.6,0.4-1,1-1s1,0.4,1,1v3C33,39.6,32.6,40,32,40z"/></svg>