<svg xmlns="http://www.w3.org/2000/svg" xmlns:xlink="http://www.w3.org/1999/xlink" xml:space="preserve" version="1.1" style="shape-rendering:geometricPrecision;text-rendering:geometricPrecision;image-rendering:optimizeQuality;" viewBox="0 0 7207 6855" x="0px" y="0px" fill-rule="evenodd" clip-rule="evenodd"><defs><style type="text/css">.fil0 {fill:black;fill-rule:nonzero}</style></defs><g><path class="fil0" d="M3009 5281c230,0 416,-186 416,-416 0,-230 -186,-416 -416,-416 -229,0 -416,186 -416,416 0,230 187,416 416,416z"/><path class="fil0" d="M3783 3675c-230,0 -416,186 -416,416 0,230 186,416 416,416 230,0 416,-186 416,-416 0,-230 -186,-416 -416,-416z"/><path class="fil0" d="M4557 3733c230,0 416,-186 416,-416 0,-230 -186,-416 -416,-416 -230,0 -416,186 -416,416 0,230 186,416 416,416z"/><path class="fil0" d="M4557 5281c-230,0 -416,-186 -416,-416 0,-230 186,-416 416,-416 230,0 416,186 416,416 0,230 -186,416 -416,416z"/><path class="fil0" d="M3009 3733c-138,0 -260,-67 -336,-171l381 -659c209,23 371,199 371,414 0,230 -186,416 -416,416z"/><path class="fil0" d="M2413 4013l726 -1257 1979 0 0 2670 -2670 0 0 -1474 -35 61zm2824 -72l1970 -1971 -1970 -1970 -1538 1537 -2306 -1331 -1393 2413 2413 1394 -23 -14 0 1485 2787 0 0 -1603 60 60zm-1580 -2361l-391 390 164 165 -1038 1798 -2313 -1335 1336 -2312 2242 1294zm-184 597l520 521 -820 0 300 -521zm603 521l-728 -728 1889 -1888 1888 1888 -1888 1889 -60 -60 0 -1101 -1101 0z"/><path class="fil0" d="M6356 1584c-213,-214 -560,-214 -774,0 -213,213 -213,560 0,773 214,214 561,214 774,0 214,-213 214,-560 0,-773z"/><path class="fil0" d="M4117 2357c214,214 560,214 774,0 214,-213 214,-560 0,-773 -214,-214 -560,-214 -774,0 -214,213 -214,560 0,773z"/><path class="fil0" d="M2885 1446c-262,-151 -597,-62 -748,200 -151,262 -61,596 200,748 262,151 597,61 748,-201 151,-261 61,-596 -200,-747z"/><path class="fil0" d="M922 2773c262,151 596,61 747,-200 152,-262 62,-597 -200,-748 -262,-151 -596,-61 -747,200 -151,262 -62,597 200,748z"/></g><text x="0" y="5499" fill="#000000" font-size="5px" font-weight="bold" font-family="'Helvetica Neue', Helvetica, Arial-Unicode, Arial, Sans-serif">Created by jhonnytornado66</text><text x="0" y="5504" fill="#000000" font-size="5px" font-weight="bold" font-family="'Helvetica Neue', Helvetica, Arial-Unicode, Arial, Sans-serif">from the Noun Project</text></svg>