<svg xmlns="http://www.w3.org/2000/svg" xmlns:xlink="http://www.w3.org/1999/xlink" version="1.1" x="0px" y="0px" viewBox="0 0 100 125" style="enable-background:new 0 0 100 100;" xml:space="preserve"><g><path d="M75.0004883,40.4921875L58.894043,38.8994141l-7.0581055-15.4238281   c-0.2441406-0.5341797-0.7768555-0.8759766-1.3637695-0.8759766s-1.1196289,0.3417969-1.3637695,0.8759766l-7.0585938,15.4238281   l-16.1064453,1.5927734c-0.5756836,0.0576172-1.0668945,0.4404297-1.2631836,0.9833984   c-0.1967773,0.5439453-0.0629883,1.1523438,0.34375,1.5634766L37.0092773,55.171875l-4.0615234,16.3916016   c-0.1455078,0.5869141,0.0761719,1.2041016,0.5615234,1.5644531c0.2641602,0.1962891,0.5791016,0.2958984,0.8945312,0.2958984   c0.2641602,0,0.5288086-0.0693359,0.765625-0.2099609l15.3432617-9.1074219l15.3242188,8.1416016   c0.5258789,0.2802734,1.1674805,0.2226562,1.6347656-0.1484375c0.4672852-0.3701172,0.6708984-0.9814453,0.5195312-1.5576172   l-4.0463867-15.3808594l11.9750977-12.1220703c0.4067383-0.4111328,0.5405273-1.0195312,0.34375-1.5634766   C76.0673828,40.9326172,75.5761719,40.5498047,75.0004883,40.4921875z M68.7394409,42.8884277L53.263916,47.8306274   l4.7075195-6.0070801L68.7394409,42.8884277z M60.8535156,55.2034912l2.6486816,10.0678711l-9.9811401-13.1391602   L60.8535156,55.2034912z M40.0921631,55.2028198l7.4758301-3.1306152L37.3913574,66.1020508L40.0921631,55.2028198z    M49.472168,52.8531494v8.3816528l-10.6763916,6.3370972L49.472168,52.8531494z M51.472168,52.7407227l10.7994995,14.2164307   L51.472168,61.2189941V52.7407227z M56.3789062,40.6126099l-4.9067383,6.2612305v-16.984375L56.3789062,40.6126099z    M49.472168,29.8892822v16.9847412l-4.9072266-6.2614746L49.472168,29.8892822z M42.9724121,41.8235474l4.7078247,6.0070801   l-15.475769-4.9421997L42.9724121,41.8235474z M30.6848145,44.501709l16.8969116,5.3959961l-8.180603,3.427063   L30.6848145,44.501709z M61.5426636,53.3248291l-8.1811523-3.4267578L70.2589722,44.50177L61.5426636,53.3248291z"/><path d="M61.5273438,21.0185547c0.1171875,0.0449219,0.237793,0.0654297,0.3564453,0.0654297   c0.4023438,0,0.7822266-0.2451172,0.934082-0.6435547l0.9423828-2.4697266   c0.1972656-0.515625-0.0615234-1.09375-0.5776367-1.2910156c-0.5161133-0.1982422-1.0942383,0.0615234-1.2905273,0.578125   l-0.9423828,2.4697266C60.7524414,20.2431641,61.0112305,20.8212891,61.5273438,21.0185547z"/><path d="M39.4165039,78.9814453c-0.5151367-0.1992188-1.0942383,0.0625-1.2910156,0.578125l-0.9418945,2.4697266   c-0.1967773,0.5166016,0.0620117,1.09375,0.578125,1.2910156c0.1171875,0.0449219,0.237793,0.0654297,0.3564453,0.0654297   c0.402832,0,0.7822266-0.2451172,0.9345703-0.6435547l0.9418945-2.4697266   C40.1914062,79.7558594,39.9326172,79.1787109,39.4165039,78.9814453z"/><path d="M83.2148438,61.4199219l-2.4697266-0.9423828c-0.5146484-0.1982422-1.0942383,0.0615234-1.2905273,0.578125   c-0.1972656,0.515625,0.0615234,1.09375,0.5776367,1.2910156l2.4697266,0.9423828   c0.1171875,0.0449219,0.237793,0.0654297,0.3564453,0.0654297c0.4023438,0,0.7822266-0.2451172,0.934082-0.6435547   C83.9897461,62.1953125,83.730957,61.6171875,83.2148438,61.4199219z"/><path d="M20.5556641,39.5878906c0.4023438,0,0.7822266-0.2451172,0.934082-0.6435547   c0.1972656-0.515625-0.0615234-1.09375-0.5776367-1.2910156l-2.4697266-0.9423828   c-0.5146484-0.1982422-1.0942383,0.0615234-1.2905273,0.578125c-0.1972656,0.515625,0.0615234,1.09375,0.5776367,1.2910156   l2.4697266,0.9423828C20.3164062,39.5673828,20.4370117,39.5878906,20.5556641,39.5878906z"/><path d="M80.1044922,37.828125l2.4125977-1.0800781c0.5039062-0.2255859,0.7294922-0.8173828,0.5039062-1.3212891   c-0.2255859-0.5048828-0.8173828-0.7285156-1.3212891-0.5048828l-2.4125977,1.0800781   c-0.5039062,0.2255859-0.7294922,0.8173828-0.5039062,1.3212891c0.1660156,0.3720703,0.5307617,0.5917969,0.9130859,0.5917969   C79.8330078,37.9150391,79.9716797,37.8867188,80.1044922,37.828125z"/><path d="M20.8398438,62.171875l-2.4125977,1.0800781c-0.5039062,0.2255859-0.7294922,0.8173828-0.5039062,1.3212891   c0.1660156,0.3720703,0.5307617,0.5917969,0.9130859,0.5917969c0.1367188,0,0.2753906-0.0283203,0.4082031-0.0869141   l2.4125977-1.0800781c0.5039062-0.2255859,0.7294922-0.8173828,0.5039062-1.3212891   C21.9355469,62.171875,21.34375,61.9472656,20.8398438,62.171875z"/><path d="M64.4692383,78.8154297c-0.2260742-0.5058594-0.8193359-0.7275391-1.3212891-0.5048828   c-0.5039062,0.2265625-0.7294922,0.8173828-0.5039062,1.3212891l1.0800781,2.4121094   c0.1660156,0.3720703,0.53125,0.5917969,0.9130859,0.5917969c0.1367188,0,0.2753906-0.0283203,0.4082031-0.0869141   c0.5039062-0.2265625,0.7294922-0.8173828,0.5039062-1.3212891L64.4692383,78.8154297z"/><path d="M36.4746094,21.1845703c0.1660156,0.3720703,0.53125,0.5917969,0.9130859,0.5917969   c0.1367188,0,0.2753906-0.0283203,0.4082031-0.0869141c0.5039062-0.2265625,0.7294922-0.8173828,0.5039062-1.3212891   l-1.0800781-2.4121094c-0.2255859-0.5058594-0.8178711-0.7275391-1.3212891-0.5048828   c-0.5039062,0.2265625-0.7294922,0.8173828-0.5039062,1.3212891L36.4746094,21.1845703z"/></g></svg>