<svg xmlns="http://www.w3.org/2000/svg" xmlns:xlink="http://www.w3.org/1999/xlink" version="1.1" x="0px" y="0px" viewBox="0 0 100 125" style="enable-background:new 0 0 100 100;" xml:space="preserve"><g><g><path d="M84.9,10H15C9.5,10,5,14.5,5,20v40.6c0,5.5,4.5,10,10,10h39L73.9,90l0-19.4h10.9c5.5,0,10-4.5,10-10V20    C94.9,14.5,90.4,10,84.9,10z M90.9,60.6c0,3.3-2.7,6-6,6H73.9h-4v4l0,9.9L56.9,67.8l-1.2-1.1h-1.6H15c-3.3,0-6-2.7-6-6V20    c0-3.3,2.7-6,6-6h69.9c3.3,0,6,2.7,6,6V60.6z"/></g><g><path d="M64,34.4l-2.3-3.9c-0.4-0.7-1.3-1-2.1-0.7l-2,0.9c-1.3-1.1-2.8-2-4.5-2.6L52.9,26c-0.1-0.8-0.8-1.5-1.6-1.5h-4.5    c-0.9,0-1.6,0.7-1.6,1.5l-0.2,2.2c-1.7,0.6-3.2,1.4-4.5,2.6l-2.1-0.9c-0.8-0.4-1.7-0.1-2.1,0.7L34,34.4c-0.4,0.7-0.2,1.7,0.5,2.2    l1.8,1.3c-0.2,0.8-0.3,1.7-0.3,2.6s0.1,1.7,0.3,2.6l-1.8,1.3c-0.7,0.5-0.9,1.4-0.5,2.2l2.3,3.9c0.4,0.7,1.3,1,2.1,0.7l2.1-0.9    c1.3,1.1,2.8,2,4.5,2.6l0.2,2.2c0.1,0.8,0.8,1.5,1.6,1.5h4.5c0.9,0,1.6-0.7,1.6-1.5l0.2-2.2c1.7-0.6,3.2-1.4,4.5-2.6l2,0.9    c0.8,0.4,1.7,0.1,2.1-0.7l2.3-3.9c0.4-0.7,0.2-1.7-0.5-2.2L61.7,43c0.2-0.8,0.3-1.7,0.3-2.6s-0.1-1.7-0.3-2.6l1.8-1.3    C64.2,36.1,64.4,35.1,64,34.4z M49,46.7c-3.4,0-6.2-2.8-6.2-6.2c0-3.4,2.8-6.2,6.2-6.2c3.4,0,6.2,2.8,6.2,6.2    C55.2,43.9,52.4,46.7,49,46.7z"/></g></g></svg>