<svg xmlns="http://www.w3.org/2000/svg" xmlns:xlink="http://www.w3.org/1999/xlink" version="1.1" x="0px" y="0px" viewBox="0 0 24 30" enable-background="new 0 0 24 24" xml:space="preserve"><g><path d="M17.672,20.45c1.914,1.256,4.561,1.002,6.156-0.594c0.156-0.156,0.156-0.41,0-0.566s-0.41-0.156-0.566,0   c-1.31,1.311-3.573,1.527-5.151,0.491l-0.284-0.192c-0.135-0.092-0.313-0.091-0.447-0.001c-1.725,1.163-3.404,1.166-5.135,0.009   c-0.135-0.092-0.31-0.091-0.444-0.001c-1.722,1.148-3.401,1.145-5.137-0.01c-0.142-0.095-0.326-0.089-0.462,0.014   c-0.606,0.455-1.274,0.729-1.986,0.811c-1.37,0.159-2.507-0.227-3.481-1.175c-0.159-0.152-0.411-0.149-0.566,0.008   c-0.153,0.159-0.15,0.412,0.008,0.566c1.143,1.111,2.53,1.58,4.132,1.396c0.766-0.089,1.486-0.358,2.146-0.804   c1.854,1.137,3.724,1.139,5.568,0.003c0.926,0.573,1.855,0.859,2.786,0.859c0.933,0,1.864-0.288,2.79-0.863L17.672,20.45z"/><path d="M6.201,17.208c-0.606,0.455-1.274,0.729-1.986,0.811c-1.353,0.154-2.52-0.238-3.481-1.175   c-0.159-0.153-0.411-0.149-0.566,0.008c-0.153,0.159-0.15,0.412,0.008,0.566c1.144,1.111,2.53,1.58,4.132,1.396   c0.766-0.089,1.486-0.358,2.146-0.804c1.853,1.137,3.724,1.137,5.568,0.004c0.926,0.572,1.855,0.859,2.786,0.859   c0.933-0.001,1.864-0.288,2.79-0.864l0.074,0.051c1.912,1.257,4.559,1.001,6.156-0.595c0.156-0.156,0.156-0.41,0-0.566   s-0.41-0.156-0.566,0c-1.311,1.312-3.571,1.527-5.149,0.494l-0.286-0.194c-0.135-0.092-0.313-0.091-0.447-0.001   c-0.58,0.391-1.156,0.64-1.729,0.768v-0.938c0.559-0.172,1.27-0.666,1.38-1.759c0.095-0.958,0.019-3.594,0.004-4.073   c0.14-0.427,0.872-2.672,1.09-3.502c0.241-0.926,0.08-1.575-0.405-1.8c-0.042-0.027-0.419-0.259-0.913-0.111   c-0.44,0.133-0.804,0.518-1.079,1.146c-0.099,0.226-0.232,0.58-0.373,0.973V5.104c0-1.124-0.345-1.699-0.937-1.699   c-0.006,0-0.011,0-0.016,0c-0.045-0.01-0.424-0.089-0.77,0.175c-0.29,0.222-0.447,0.599-0.466,1.094l-0.182,1.802l-0.266-2.118   c-0.007-0.101-0.087-0.998-0.586-1.411c-0.196-0.163-0.435-0.231-0.688-0.205c-0.73,0.085-1.008,0.538-1.058,1.73   c-0.032,0.761-0.078,2.344-0.114,3.638L9.105,5.095C9.075,5.02,8.788,4.356,8.221,4.148C7.945,4.047,7.65,4.071,7.329,4.24   C7.055,4.425,6.664,4.974,6.944,5.857C7.18,6.607,7.494,7.839,7.798,9.03c0.263,1.031,0.515,2.018,0.721,2.719   c-0.033-0.001-0.063-0.005-0.097-0.005c-0.007,0-0.014,0-0.02,0l-0.2-0.029l-2.001-1.84C6.154,9.827,5.729,9.412,5.176,9.412   c-0.006,0-0.013,0-0.02,0C4.849,9.418,4.566,9.553,4.368,9.772c-0.033,0.029-0.325,0.296-0.325,0.726   c0,0.313,0.149,0.607,0.443,0.879l1.155,1.898c0.035,0.101,0.882,2.457,3.011,3.021l0.268,0.057l0.03,1.686   c-0.757-0.059-1.517-0.331-2.287-0.844C6.522,17.099,6.337,17.106,6.201,17.208z M8.837,15.517   c-1.694-0.449-2.433-2.487-2.475-2.582L5.14,10.911c-0.022-0.036-0.049-0.068-0.081-0.096c-0.135-0.117-0.213-0.231-0.216-0.314   c-0.002-0.072,0.058-0.132,0.083-0.157c0.105-0.115,0.189-0.13,0.243-0.132c0.002,0,0.005,0,0.008,0   c0.185,0,0.396,0.167,0.469,0.238l2.107,1.938c0.01,0.009,0.022,0.012,0.033,0.02c0.021,0.016,0.043,0.03,0.068,0.042   c0.025,0.012,0.05,0.021,0.076,0.027c0.013,0.003,0.023,0.011,0.036,0.013l0.38,0.05c0.004,0,0.007,0,0.011,0   c2.675,0,3.143,2.201,3.161,2.295c0.038,0.19,0.205,0.323,0.393,0.323c0.024,0,0.051-0.003,0.076-0.008   c0.216-0.042,0.357-0.25,0.316-0.466c-0.004-0.027-0.481-2.343-2.919-2.841c-0.216-0.678-0.518-1.86-0.811-3.01   C8.267,7.63,7.95,6.388,7.707,5.617c-0.17-0.538,0.042-0.695,0.03-0.69C7.841,4.873,7.9,4.884,7.945,4.899   c0.188,0.068,0.364,0.367,0.417,0.492l1.886,4.868c0.068,0.177,0.255,0.281,0.441,0.25c0.188-0.033,0.327-0.193,0.331-0.384   c0,0,0.106-4.214,0.166-5.618c0.04-0.931,0.184-0.949,0.436-0.944c0.177,0.146,0.282,0.628,0.302,0.875l0.705,5.646   c0.024,0.202,0.219,0.311,0.401,0.35c0.203-0.002,0.372-0.157,0.394-0.359l0.54-5.344c0.01-0.25,0.065-0.441,0.149-0.511   c0.05-0.041,0.115-0.034,0.197-0.025c0.091,0,0.242,0.118,0.242,0.909v5.216c0,0.197,0.144,0.364,0.338,0.395   c0.194,0.035,0.382-0.084,0.443-0.271c0.008-0.024,0.793-2.438,1.125-3.195c0.169-0.384,0.37-0.632,0.567-0.697   c0.147-0.048,0.263,0.017,0.305,0.04c0.11,0.052,0.148,0.404,0.02,0.9c-0.229,0.876-1.09,3.496-1.099,3.522   c-0.015,0.044-0.021,0.091-0.02,0.138c0.001,0.03,0.1,3.058,0.001,4.037c-0.1,1.004-0.922,1.105-1.012,1.113   c-0.209,0.016-0.372,0.189-0.372,0.399v1.367c-0.863,0.009-1.727-0.276-2.604-0.862c-0.135-0.092-0.31-0.091-0.444-0.001   c-0.688,0.459-1.369,0.725-2.049,0.816l-0.036-2.001c-0.004-0.187-0.136-0.346-0.318-0.385L8.837,15.517z"/></g></svg>